<?xml version="1.0" standalone="no"?>
<!DOCTYPE svg PUBLIC "-//W3C//DTD SVG 20010904//EN"
 "http://www.w3.org/TR/2001/REC-SVG-20010904/DTD/svg10.dtd">
<svg version="1.0" xmlns="http://www.w3.org/2000/svg"
 width="1280.000000pt" height="640.000000pt" viewBox="0 0 1280.000000 640.000000"
 preserveAspectRatio="xMidYMid meet">
<metadata>
Created by potrace 1.15, written by Peter Selinger 2001-2017
</metadata>
<g transform="translate(0.000000,640.000000) scale(0.100000,-0.100000)"
fill="#000000" stroke="none">
<path d="M1830 6375 c0 -3 15 -33 33 -66 l32 -60 -23 -19 c-29 -24 -113 -50
-297 -90 -77 -17 -161 -37 -186 -46 -64 -20 -119 -83 -119 -133 0 -28 -7 -27
-69 15 -127 86 -234 117 -496 144 -289 30 -318 39 -465 139 -162 111 -216 126
-234 63 -13 -46 7 -123 59 -232 114 -234 208 -317 575 -510 244 -128 326 -179
369 -226 34 -36 39 -48 45 -110 4 -38 23 -179 42 -314 50 -355 113 -576 246
-866 188 -411 328 -616 639 -939 79 -83 155 -163 168 -178 l24 -27 -603 7
c-458 5 -601 4 -596 -5 5 -9 86 -12 289 -12 378 -1 917 -17 948 -28 13 -6 108
-76 209 -156 189 -150 267 -205 591 -414 426 -275 1070 -634 1332 -742 98 -40
370 -171 365 -175 -2 -2 -554 1 -1228 5 -1316 10 -1498 8 -1572 -17 -42 -15
-51 -15 -100 0 -77 23 -369 29 -923 20 -402 -7 -445 -9 -295 -14 96 -4 362 -8
590 -9 228 -1 462 -6 520 -12 127 -11 105 -11 630 3 301 8 726 9 1460 3 l1035
-9 43 -23 c23 -12 42 -23 42 -25 0 -1 -759 -1 -1687 0 -1247 2 -1681 -1 -1663
-9 18 -8 466 -12 1585 -14 1520 -2 1777 -6 1880 -25 27 -5 261 -79 520 -163
570 -187 572 -188 865 -269 494 -137 887 -229 1290 -303 135 -24 324 -60 420
-79 474 -92 1066 -155 1705 -181 312 -13 659 27 1273 147 691 134 1278 340
1527 536 83 66 175 221 175 298 0 33 -30 40 -258 60 -103 9 -202 19 -221 21
l-33 5 73 45 c102 63 199 144 205 171 8 32 -30 88 -106 154 -138 122 -724 507
-1026 675 -196 108 -526 270 -587 288 -29 8 -113 24 -187 36 -243 38 -241 37
-580 228 -231 130 -388 207 -635 312 -223 95 -414 158 -703 229 -131 33 -298
77 -372 99 -121 36 -740 168 -963 207 -116 19 -456 60 -677 80 -96 9 -227 22
-290 30 -227 29 -363 36 -865 45 -653 12 -818 26 -1140 95 -143 31 -232 54
-498 126 -71 19 -80 19 -102 5 -12 -8 -30 -34 -37 -58 l-15 -43 -94 1 c-77 0
-114 7 -199 33 -352 109 -617 220 -797 333 -194 121 -319 222 -488 392 -114
115 -159 169 -242 293 -109 162 -119 188 -110 283 8 90 45 148 167 259 192
175 229 224 230 299 0 68 -98 251 -168 313 -59 53 -252 132 -252 104z m163
-86 c51 -30 81 -58 118 -107 76 -104 103 -163 96 -219 -3 -26 -12 -52 -21 -58
-9 -7 -16 -19 -16 -28 0 -27 -60 -87 -87 -87 -13 0 -21 4 -18 10 3 6 14 10 24
10 10 0 23 11 29 25 10 21 9 25 -3 25 -8 0 -15 -4 -15 -9 0 -5 -13 -11 -30
-14 -30 -6 -60 -48 -60 -84 0 -23 -42 -43 -64 -31 -21 12 -21 0 1 -24 15 -17
14 -20 -23 -53 -21 -19 -47 -34 -56 -35 -26 0 -50 -30 -45 -57 5 -26 3 -27
-23 -13 -24 13 -35 -2 -21 -28 9 -17 6 -19 -20 -18 -27 1 -40 14 -106 105 -59
80 -90 112 -136 142 -44 29 -64 36 -71 28 -8 -8 0 -20 29 -42 86 -67 144 -139
245 -302 212 -343 322 -488 509 -675 129 -129 287 -254 421 -334 251 -149 623
-301 933 -380 153 -40 573 -96 706 -96 92 1 41 16 -149 44 -96 14 -197 31
-225 37 -72 17 -115 59 -60 59 27 0 33 18 13 38 -19 19 35 15 117 -7 228 -63
461 -118 645 -152 148 -27 307 -37 765 -49 563 -14 875 -28 1012 -45 65 -7
172 -19 238 -25 142 -13 536 -56 644 -71 122 -16 750 -144 946 -193 339 -84
830 -217 932 -251 122 -42 428 -172 573 -244 156 -78 580 -315 580 -324 0 -5
-18 -6 -39 -2 -22 4 -48 2 -58 -3 -27 -16 34 -28 282 -57 121 -14 247 -33 279
-41 63 -16 276 -109 448 -195 104 -51 670 -391 785 -471 35 -24 104 -72 155
-107 203 -139 339 -253 323 -270 -18 -17 -209 -42 -366 -47 -299 -11 -444 13
-864 141 -252 77 -301 90 -425 110 -186 30 -329 13 -411 -47 -67 -49 -132 -62
-221 -43 -97 20 -164 52 -202 97 -41 48 -54 35 -27 -27 35 -79 196 -165 284
-151 22 4 93 28 156 53 100 40 125 46 183 46 109 -2 330 -67 675 -199 106 -41
246 -92 310 -114 188 -65 497 -115 876 -140 92 -7 189 -15 215 -18 45 -7 47
-9 50 -41 7 -73 -83 -203 -183 -261 l-40 -24 38 42 c36 41 46 62 28 62 -5 0
-48 -29 -95 -65 -133 -100 -165 -111 -73 -25 42 39 77 76 77 81 0 20 -25 6
-71 -40 -26 -27 -81 -71 -121 -97 -71 -48 -352 -194 -372 -194 -18 0 7 17 89
63 189 104 352 243 321 274 -3 3 -35 -21 -70 -55 -72 -67 -225 -171 -326 -222
-78 -40 -240 -103 -247 -96 -2 2 55 45 129 95 180 122 292 213 323 261 l25 40
78 1 c52 0 71 3 57 9 -29 12 -235 12 -235 0 0 -5 9 -10 19 -10 11 0 22 -4 26
-10 17 -27 -214 -206 -452 -350 -156 -94 -410 -189 -428 -159 -6 9 31 31 210
123 289 149 535 350 487 398 -6 6 -22 -8 -44 -39 -134 -187 -648 -451 -1123
-577 -77 -21 -149 -40 -160 -43 -17 -5 -18 -4 -6 10 7 9 86 39 174 68 432 137
704 276 885 453 46 44 92 96 104 113 39 64 11 52 -67 -28 -95 -98 -193 -173
-338 -257 -141 -83 -201 -109 -462 -202 -281 -99 -423 -132 -623 -143 -90 -5
-64 7 63 27 175 28 341 71 501 129 223 81 344 146 530 283 165 122 274 234
261 268 -4 11 -37 -16 -109 -87 -75 -75 -144 -130 -255 -204 -274 -184 -459
-256 -893 -350 -110 -23 -136 -25 -635 -33 -286 -5 -578 -14 -650 -19 -162
-13 -342 -14 -329 -2 5 5 97 19 204 32 170 20 262 24 720 30 595 7 602 8 920
89 137 35 222 66 330 120 192 97 580 391 580 440 0 24 -39 5 -85 -41 -91 -93
-376 -295 -515 -364 -97 -49 -238 -99 -381 -135 -292 -74 -386 -82 -934 -79
-351 1 -487 -2 -620 -15 -192 -18 -255 -20 -255 -7 0 4 60 20 133 34 156 31
208 33 797 29 441 -4 530 1 735 39 269 50 415 112 697 296 147 96 268 217 268
267 0 29 -19 17 -61 -39 -128 -170 -518 -395 -814 -470 -213 -54 -291 -59
-930 -60 l-590 0 -130 -27 c-163 -34 -344 -58 -438 -58 -85 0 -261 27 -265 40
-2 6 -18 10 -36 10 -18 0 -55 7 -82 15 -67 20 -466 218 -584 290 -93 57 -301
160 -410 203 -30 12 -157 53 -281 91 -371 114 -620 205 -834 306 -150 71 -348
157 -625 273 -263 110 -446 196 -525 247 -61 39 -134 69 -144 60 -28 -29 261
-174 794 -399 176 -74 387 -167 469 -206 257 -123 444 -193 821 -306 291 -87
320 -98 480 -177 159 -79 607 -328 601 -335 -9 -8 -112 37 -326 142 -409 201
-594 275 -950 381 -339 101 -598 200 -875 335 -99 48 -234 110 -300 138 -66
27 -165 69 -220 92 -55 23 -147 67 -205 97 -58 31 -141 74 -185 95 -44 22
-132 73 -196 114 -112 72 -149 87 -149 61 0 -14 239 -164 326 -203 32 -15 87
-45 121 -65 34 -21 181 -90 325 -153 145 -63 319 -140 388 -171 490 -225 594
-266 948 -370 296 -87 697 -245 789 -310 23 -17 79 -50 124 -75 45 -24 76 -46
70 -48 -16 -5 -41 5 -266 108 -129 59 -269 114 -435 168 -135 44 -337 111
-450 147 -271 89 -395 139 -727 294 -153 71 -345 158 -428 194 -82 36 -202 90
-266 120 -169 80 -604 321 -644 357 -11 10 -42 32 -69 49 -75 47 -99 39 -51
-17 15 -18 156 -101 362 -214 401 -221 426 -233 658 -333 99 -43 297 -132 440
-197 143 -66 307 -140 365 -163 130 -54 533 -191 706 -240 80 -23 165 -56 223
-86 51 -27 88 -49 81 -49 -18 0 -156 36 -330 86 -395 115 -585 187 -1095 419
-148 68 -349 155 -445 195 -96 40 -240 99 -320 132 -80 33 -155 66 -167 74
-12 8 -69 39 -125 70 -57 31 -193 116 -304 190 -110 74 -205 134 -210 134 -6
0 -23 13 -39 30 -29 30 -81 42 -73 18 6 -17 45 -45 288 -205 155 -102 268
-167 465 -266 143 -71 305 -147 360 -168 55 -20 150 -58 210 -83 133 -56 705
-319 701 -323 -4 -5 -313 101 -471 162 -82 31 -213 79 -290 105 -181 62 -361
143 -505 227 -63 37 -172 97 -242 134 -69 36 -139 75 -155 86 -15 11 -36 23
-47 27 -10 3 -58 31 -105 60 -48 30 -115 68 -149 85 -34 17 -95 52 -136 78
-115 74 -227 136 -232 130 -13 -13 27 -50 106 -95 222 -128 278 -161 378 -221
59 -36 151 -89 205 -119 54 -30 96 -57 93 -59 -11 -11 -801 400 -887 462 -72
51 -88 58 -105 45 -11 -10 -19 -9 -39 4 -14 9 -25 20 -25 23 0 4 15 22 33 41
l32 34 -35 29 c-30 26 -42 29 -102 29 -63 0 -69 2 -112 39 -25 21 -65 47 -90
56 -42 16 -48 16 -70 2 -23 -15 -26 -15 -50 4 -28 22 -35 49 -11 49 8 0 19 9
26 21 9 17 7 25 -13 46 -36 39 -72 53 -136 53 -46 0 -63 4 -77 20 -13 15 -31
20 -66 20 -35 0 -51 5 -61 18 -7 11 -33 32 -57 48 -24 16 -55 37 -69 46 -29
19 -42 37 -42 57 0 10 12 3 33 -16 17 -18 45 -37 60 -42 33 -13 104 -15 111
-3 3 4 -4 41 -15 82 -10 40 -19 89 -19 107 0 37 -8 40 -52 17 -25 -13 -45 -15
-107 -8 -42 4 -79 8 -83 9 -24 1 -7 -23 27 -41 49 -25 56 -60 11 -57 -34 2
-75 28 -83 51 -3 9 -14 25 -25 35 -20 20 -23 49 -7 78 8 16 7 25 -8 41 -26 30
-92 58 -135 58 -28 0 -46 8 -70 31 -18 17 -28 32 -23 35 51 22 75 46 75 75 0
37 -47 89 -82 89 -35 0 -44 10 -72 73 -14 31 -31 60 -39 63 -8 3 -36 -4 -64
-15 -38 -15 -53 -17 -62 -8 -16 16 -13 78 5 98 15 17 15 21 -4 51 -12 18 -30
39 -41 46 -33 19 -24 31 14 19 29 -9 38 -7 55 8 25 23 45 14 69 -32 13 -25 20
-32 21 -19 0 25 -37 84 -61 96 -15 8 -23 6 -36 -10 -24 -27 -39 -25 -80 10
-51 45 -57 42 -53 -30 l1 -35 -36 50 c-20 27 -38 60 -40 72 -3 13 -7 34 -10
48 -5 21 -1 25 32 30 21 4 48 10 61 16 30 12 26 13 67 -22 43 -38 46 -22 4 26
-31 35 -65 45 -86 24 -14 -14 -80 -14 -97 1 -11 9 -17 7 -24 -6 -8 -15 -12
-13 -27 15 -24 48 -85 208 -85 225 0 9 14 18 35 22 47 8 47 34 0 34 -31 0 -35
3 -41 35 -3 19 -10 38 -15 41 -8 5 -12 -1 -25 -45 -8 -27 -36 14 -36 52 0 52
17 74 72 92 45 15 80 48 67 62 -3 2 -27 -5 -52 -16 -57 -25 -69 -26 -85 -6
-11 13 -8 21 15 45 37 39 28 46 -24 18 -40 -22 -42 -22 -56 -5 -14 20 -40 146
-34 166 3 7 18 0 39 -18 34 -29 34 -30 10 -31 l-24 0 21 -21 c48 -48 60 24 13
78 -30 33 -40 86 -24 127 5 14 8 14 27 1 38 -27 50 -20 43 26 -9 56 -38 120
-43 96 -3 -9 1 -33 7 -53 15 -44 9 -50 -24 -29 -34 22 -46 12 -46 -39 0 -42
-22 -88 -33 -69 -3 5 -13 88 -22 184 -16 174 -28 259 -40 292 -15 38 12 13 47
-44 21 -33 42 -57 48 -54 31 19 -14 162 -61 195 -33 24 -40 47 -10 30 26 -13
31 -13 31 5 0 8 -11 22 -25 31 -14 9 -25 25 -25 35 0 13 -7 19 -21 19 -14 0
-19 5 -16 15 11 28 -10 24 -49 -9 l-39 -33 -28 45 c-19 30 -23 43 -12 39 8 -4
15 -1 15 6 0 7 -17 17 -37 24 -31 9 -41 9 -54 -3 -8 -8 -27 -14 -40 -14 -21 0
-27 7 -38 48 -29 109 -40 116 -117 79 -68 -34 -74 -34 -74 1 0 15 -4 34 -10
42 -8 12 -11 12 -28 -3 -23 -21 -46 -22 -62 -2 -7 8 -19 15 -26 15 -16 0 -19
16 -4 25 16 10 1 25 -25 25 -13 0 -27 5 -30 10 -3 6 -15 10 -26 10 -38 0 -79
29 -79 55 0 20 -5 25 -25 25 -22 0 -25 4 -25 34 0 37 -12 51 -53 61 -31 8 -47
31 -47 69 0 18 -4 24 -15 20 -9 -4 -17 1 -21 12 -4 11 -18 46 -31 79 -35 85
-52 151 -43 165 11 18 44 5 140 -58 190 -124 248 -142 519 -167 95 -8 203 -22
240 -30 105 -25 203 -79 291 -162 l78 -73 6 34 c4 19 4 52 0 74 -8 51 16 99
61 118 18 7 125 36 237 64 247 62 264 68 293 102 20 24 22 33 14 60 -11 39
-12 58 -2 58 4 0 38 -18 76 -41z m-1268 -679 c10 -11 15 -20 11 -20 -14 0 -46
21 -46 30 0 16 16 11 35 -10z m155 -90 c0 -5 -4 -10 -10 -10 -5 0 -10 5 -10
10 0 6 5 10 10 10 6 0 10 -4 10 -10z m900 -96 c0 -8 -4 -12 -10 -9 -5 3 -10
10 -10 16 0 5 5 9 10 9 6 0 10 -7 10 -16z m93 -1963 c22 -51 30 -60 59 -66 50
-11 78 -32 78 -60 0 -30 3 -30 -55 -5 -26 11 -57 20 -71 20 -41 0 -76 82 -60
144 10 39 21 32 49 -33z m285 -382 l3 -54 -30 29 c-36 34 -37 39 -13 65 26 29
37 19 40 -40z m343 -154 c26 -73 24 -85 -10 -85 -40 0 -79 34 -91 81 -14 51
-7 61 43 57 39 -3 41 -5 58 -53z m325 -307 c10 -10 14 -24 10 -34 -5 -14 -15
-16 -57 -11 -28 4 -72 16 -98 29 -44 21 -45 22 -21 30 43 12 149 4 166 -14z
m199 -198 c65 -38 90 -58 82 -66 -7 -7 -147 77 -147 89 0 12 13 8 65 -23z
m225 -70 c11 -7 2 -10 -32 -10 -26 0 -50 5 -53 10 -8 13 65 13 85 0z m7714
-631 c-7 -12 -54 -12 -54 0 0 11 30 19 47 13 7 -2 10 -8 7 -13z m91 -39 c3 -5
-1 -10 -9 -10 -9 0 -16 5 -16 10 0 6 4 10 9 10 6 0 13 -4 16 -10z m90 -20 c-3
-5 -15 -10 -26 -10 -11 0 -17 5 -14 10 3 6 15 10 26 10 11 0 17 -4 14 -10z
m74 -36 c-13 -16 -39 -19 -39 -4 0 12 32 30 43 23 4 -3 3 -11 -4 -19z m69 -26
c-3 -7 -11 -13 -18 -13 -7 0 -15 6 -17 13 -3 7 4 12 17 12 13 0 20 -5 18 -12z
m82 -23 c0 -9 -7 -18 -16 -22 -18 -7 -39 11 -30 26 11 17 46 13 46 -4z m80
-24 c-14 -27 -23 -31 -40 -20 -13 8 -12 12 4 24 29 22 49 20 36 -4z m130 -10
c0 -27 -75 -61 -100 -46 -20 13 -4 29 41 41 57 16 59 16 59 5z m46 -67 c-5
-14 -46 -20 -46 -7 0 4 10 18 23 31 18 20 23 21 25 7 2 -9 1 -23 -2 -31z m154
-43 c-6 -12 -15 -21 -20 -21 -16 0 -11 33 8 60 17 25 17 25 20 3 2 -12 -2 -31
-8 -42z m100 49 c0 -16 -27 -65 -43 -78 -12 -10 -16 -9 -20 7 -5 22 2 35 26
44 9 3 17 13 17 22 0 8 5 15 10 15 6 0 10 -5 10 -10z m-150 -10 c0 -16 -46
-41 -64 -34 -20 8 -20 14 2 30 20 16 62 18 62 4z m441 -32 c-15 -44 -60 -100
-61 -75 0 31 55 125 68 113 2 -3 -1 -20 -7 -38z m184 12 c-9 -16 -18 -30 -21
-30 -2 0 2 14 11 30 9 17 18 30 21 30 2 0 -2 -13 -11 -30z m-419 -34 c-14 -35
-29 -45 -40 -28 -3 5 7 26 21 47 30 45 41 34 19 -19z m164 27 c0 -29 -23 -65
-47 -74 -35 -13 -35 4 -2 49 33 45 49 53 49 25z m190 -34 c-11 -26 -50 -60
-50 -44 0 9 31 68 43 84 17 21 21 -5 7 -40z m-290 -3 c-22 -36 -40 -47 -40
-24 0 14 51 70 58 63 2 -2 -6 -20 -18 -39z m240 31 c0 -15 -60 -90 -67 -83 -3
3 7 26 21 51 26 44 46 58 46 32z m-6220 -367 c0 -5 -9 -6 -20 -3 -11 3 -20 9
-20 13 0 5 9 6 20 3 11 -3 20 -9 20 -13z m65 -20 c8 -13 -5 -13 -25 0 -13 8
-13 10 2 10 9 0 20 -4 23 -10z m1028 -285 c21 -10 36 -20 33 -22 -7 -7 -126
48 -126 59 0 5 12 2 28 -5 15 -8 44 -22 65 -32z m2500 -352 c-7 -2 -19 -2 -25
0 -7 3 -2 5 12 5 14 0 19 -2 13 -5z m120 0 c-7 -2 -19 -2 -25 0 -7 3 -2 5 12
5 14 0 19 -2 13 -5z m174 -6 c-42 -7 -62 -6 -70 2 -8 8 7 11 59 10 l69 -2 -58
-10z m150 7 c-3 -3 -12 -4 -19 -1 -8 3 -5 6 6 6 11 1 17 -2 13 -5z m-589 -19
c9 -8 -102 -16 -130 -9 l-33 8 35 7 c30 6 119 1 128 -6z m342 5 c0 -13 -11
-13 -30 0 -12 8 -11 10 8 10 12 0 22 -4 22 -10z"/>
<path d="M340 5820 c0 -5 7 -10 15 -10 8 0 15 5 15 10 0 6 -7 10 -15 10 -8 0
-15 -4 -15 -10z"/>
<path d="M1960 5765 c0 -8 5 -15 10 -15 6 0 10 7 10 15 0 8 -4 15 -10 15 -5 0
-10 -7 -10 -15z"/>
<path d="M492 5739 c1 -13 8 -23 13 -21 15 3 12 35 -3 40 -9 3 -13 -3 -10 -19z"/>
<path d="M1877 5702 c-3 -15 -8 -38 -13 -52 l-7 -25 22 27 c22 27 28 63 12 72
-5 3 -11 -7 -14 -22z"/>
<path d="M616 5711 c-3 -5 0 -14 8 -20 10 -8 16 -8 25 2 6 8 8 17 4 20 -9 10
-31 9 -37 -2z"/>
<path d="M1802 5664 c1 -9 9 -19 16 -22 9 -3 13 2 10 14 -1 9 -9 19 -16 22 -9
3 -13 -2 -10 -14z"/>
<path d="M812 5614 c1 -9 9 -19 16 -22 9 -3 13 2 10 14 -1 9 -9 19 -16 22 -9
3 -13 -2 -10 -14z"/>
<path d="M1790 5595 c0 -8 5 -15 10 -15 6 0 10 7 10 15 0 8 -4 15 -10 15 -5 0
-10 -7 -10 -15z"/>
<path d="M1730 5550 c0 -5 5 -10 10 -10 6 0 10 5 10 10 0 6 -4 10 -10 10 -5 0
-10 -4 -10 -10z"/>
<path d="M1174 5067 c-7 -20 -2 -47 11 -50 14 -3 19 43 6 56 -7 7 -12 6 -17
-6z"/>
<path d="M1356 4683 c-4 -4 2 -14 13 -23 11 -8 34 -40 50 -70 21 -37 31 -48
31 -34 0 25 -17 68 -44 107 -18 27 -36 34 -50 20z"/>
<path d="M1520 4550 c0 -5 18 -10 40 -10 22 0 40 5 40 10 0 6 -18 10 -40 10
-22 0 -40 -4 -40 -10z"/>
<path d="M1510 4450 c0 -5 14 -10 30 -10 17 0 30 5 30 10 0 6 -13 10 -30 10
-16 0 -30 -4 -30 -10z"/>
<path d="M1665 4371 c5 -23 2 -32 -16 -44 -32 -23 -20 -38 19 -22 34 15 41 39
22 76 -16 30 -33 23 -25 -10z"/>
<path d="M1466 4351 c-3 -5 8 -14 26 -20 17 -6 46 -22 64 -36 40 -31 59 -33
44 -5 -12 22 -89 70 -113 70 -9 0 -18 -4 -21 -9z"/>
<path d="M1756 4244 c-36 -11 -46 -18 -37 -27 8 -8 24 -7 63 2 52 14 52 14 75
-15 l23 -29 0 26 c0 49 -49 66 -124 43z"/>
<path d="M1520 4199 c-41 -17 -60 -40 -60 -74 0 -43 32 -82 78 -95 53 -14 55
-14 95 25 20 19 40 35 45 35 5 0 29 -16 53 -35 24 -19 47 -35 51 -35 11 0 20
39 13 60 -8 24 -22 26 -27 5 -2 -13 -9 -11 -37 10 -46 33 -64 32 -110 -10 -47
-43 -72 -44 -105 -4 -35 41 -34 66 3 74 33 7 56 29 46 45 -7 12 -12 12 -45 -1z"/>
<path d="M1926 4078 c-18 -25 -13 -38 14 -38 10 0 24 -8 29 -17 9 -15 10 -13
11 14 0 63 -25 83 -54 41z"/>
<path d="M2155 3960 c-12 -4 -27 -15 -34 -24 -11 -13 -11 -17 2 -22 20 -7 37
3 37 23 0 13 9 15 50 11 28 -3 53 -2 55 2 12 19 -71 26 -110 10z"/>
<path d="M1820 3880 c0 -6 13 -13 30 -16 16 -4 47 -22 69 -40 l39 -34 42 47
c45 52 37 73 -11 27 l-29 -27 -49 26 c-50 28 -91 35 -91 17z"/>
<path d="M2195 3821 c-3 -5 5 -25 17 -44 13 -19 28 -43 34 -53 10 -17 12 -17
45 3 19 11 46 23 62 27 15 3 27 11 27 16 0 12 5 13 -56 -4 -59 -15 -65 -13
-88 32 -17 32 -30 40 -41 23z"/>
<path d="M2456 3804 c-9 -24 -7 -102 3 -108 20 -13 32 23 25 73 -7 52 -17 64
-28 35z"/>
<path d="M2039 3735 c-106 -39 -154 -80 -128 -111 7 -9 34 -27 61 -40 l48 -24
0 -54 c0 -49 3 -57 35 -85 42 -37 66 -31 84 20 17 50 13 96 -14 147 -30 57
-31 67 -4 85 17 13 19 19 10 36 -10 17 -42 43 -53 40 -2 0 -19 -6 -39 -14z
m40 -70 c-12 -34 -12 -40 14 -85 31 -55 33 -79 11 -121 -22 -43 -41 -23 -50
53 -8 69 -29 98 -72 98 -26 0 -52 15 -52 31 0 10 67 49 110 64 45 16 55 6 39
-40z"/>
<path d="M2590 3666 c0 -35 26 -51 81 -49 41 2 51 -2 68 -22 23 -30 31 -31 31
-5 0 27 -56 60 -102 60 -27 0 -41 6 -50 20 -17 27 -28 25 -28 -4z"/>
<path d="M1762 3638 c5 -15 28 -18 29 -3 0 6 -7 12 -17 13 -10 3 -15 -1 -12
-10z"/>
<path d="M2378 3623 c-27 -27 -28 -27 -63 -10 -20 9 -42 17 -50 17 -23 0 -35
-34 -35 -98 0 -51 4 -63 26 -85 29 -29 87 -45 107 -29 6 5 47 13 90 17 l79 8
-7 36 c-10 59 -25 111 -32 111 -3 0 -3 -29 -1 -64 l6 -65 -72 -4 c-39 -2 -80
-7 -91 -11 -14 -5 -29 0 -48 14 -23 19 -27 29 -27 75 0 30 5 57 11 60 6 4 27
-4 46 -18 l36 -26 38 42 c21 23 38 45 39 50 0 16 -27 6 -52 -20z"/>
<path d="M2965 3592 c-11 -4 -32 -15 -48 -26 -15 -10 -36 -16 -47 -13 -30 8
-24 -12 6 -24 28 -10 64 -4 64 11 0 14 30 40 46 40 28 0 26 -30 -5 -69 -17
-21 -31 -42 -31 -46 0 -3 23 -39 51 -80 57 -81 87 -102 122 -83 12 6 50 12 84
13 60 1 103 19 86 36 -5 5 -26 4 -47 -2 -33 -9 -41 -8 -61 11 l-22 21 -31 -26
c-33 -28 -64 -32 -81 -11 -6 7 -24 37 -40 66 l-29 53 29 40 c35 49 38 82 7 91
-26 6 -25 6 -53 -2z"/>
<path d="M2612 3498 c-14 -18 -27 -118 -18 -151 4 -17 19 -30 46 -41 37 -15
43 -15 81 0 40 16 88 16 180 -3 30 -6 33 -5 21 10 -26 31 -150 46 -207 26 -39
-14 -81 -5 -95 20 -13 26 -3 74 22 101 l20 22 29 -31 c19 -21 37 -31 58 -31
16 0 33 -4 36 -10 11 -18 26 -10 23 12 -2 18 -12 24 -40 29 -20 3 -45 16 -55
28 -22 27 -84 39 -101 19z"/>
<path d="M3327 3423 c-12 -11 -8 -23 7 -23 7 0 19 7 26 15 10 12 9 15 -7 15
-11 0 -23 -3 -26 -7z"/>
<path d="M2192 3331 c-37 -34 -38 -41 -16 -82 12 -23 39 -42 117 -80 120 -58
166 -69 202 -45 19 12 25 25 25 50 0 47 9 66 31 66 28 0 23 22 -14 58 -40 39
-76 41 -131 8 l-39 -24 -49 39 c-60 47 -83 49 -126 10z m117 -41 c29 -22 58
-40 65 -40 6 0 28 11 48 25 20 14 46 25 56 25 24 0 48 -25 33 -35 -6 -3 -18
-31 -27 -61 -9 -31 -23 -58 -31 -61 -8 -3 -38 4 -67 17 -28 12 -69 29 -91 37
-49 18 -105 59 -105 78 0 13 45 55 59 55 4 0 30 -18 60 -40z"/>
<path d="M3668 3331 c-57 -29 -65 -81 -13 -81 29 0 43 23 26 44 -15 18 -4 26
36 26 18 0 33 4 33 9 0 17 -51 18 -82 2z"/>
<path d="M3415 3263 c-3 -16 -10 -42 -15 -59 -14 -44 -12 -65 10 -101 17 -28
25 -33 57 -33 45 1 170 24 180 33 10 11 -71 8 -126 -4 -36 -7 -55 -7 -70 1
-29 15 -37 57 -17 90 17 29 20 57 10 84 -9 24 -23 19 -29 -11z"/>
<path d="M2683 3205 c-43 -21 -75 -44 -78 -56 -8 -24 15 -62 50 -85 22 -14 26
-14 47 0 12 9 27 16 34 16 6 0 37 -22 68 -50 31 -27 64 -50 72 -50 18 0 37 46
29 70 -3 10 -14 25 -25 35 -31 28 -25 52 20 75 22 11 40 25 40 30 0 21 -54 43
-118 47 -62 4 -73 2 -139 -32z m168 -32 c-17 -21 -31 -43 -31 -50 0 -7 14 -28
30 -46 60 -69 26 -79 -40 -12 -44 44 -90 60 -105 35 -11 -17 -43 -11 -59 11
-15 23 -11 49 8 49 6 0 31 11 56 25 34 18 61 24 108 25 l63 0 -30 -37z"/>
<path d="M3930 3226 c0 -4 11 -11 25 -16 32 -12 32 -25 0 -46 l-26 -17 27 -28
c15 -16 34 -29 41 -29 8 0 32 -9 53 -20 38 -20 40 -22 40 -69 0 -42 4 -53 27
-71 40 -32 103 -25 121 13 9 17 29 35 50 43 82 33 86 35 73 43 -31 20 -130
-19 -153 -59 -33 -57 -83 -26 -73 45 6 39 5 44 -24 64 -17 12 -47 25 -66 28
-68 11 -68 53 -1 72 l31 9 -35 15 c-41 18 -110 32 -110 23z"/>
<path d="M3715 3201 c-6 -20 3 -51 16 -51 4 0 15 10 23 22 11 16 13 25 4 35
-15 19 -36 16 -43 -6z"/>
<path d="M3050 3169 c-53 -32 -98 -109 -86 -147 7 -21 56 -52 84 -52 25 0 82
46 82 66 0 22 14 17 45 -16 57 -59 95 -31 94 68 0 37 -3 74 -7 82 -10 23 -174
22 -212 -1z m136 -24 c37 5 42 4 48 -17 7 -30 8 -72 0 -92 -5 -14 -11 -12 -36
9 -19 16 -42 25 -64 25 -30 0 -37 -4 -45 -30 -8 -22 -17 -30 -34 -30 -70 0
-74 43 -11 106 41 41 46 44 72 33 16 -6 48 -8 70 -4z"/>
<path d="M3730 3111 c0 -25 35 -68 72 -87 51 -26 138 3 138 46 0 18 -2 18 -36
-5 -44 -30 -62 -31 -103 -7 -23 12 -31 24 -31 45 0 20 -5 27 -20 27 -13 0 -20
-7 -20 -19z"/>
<path d="M4498 3085 c-34 -19 -34 -22 -7 -51 22 -23 19 -44 -7 -44 -8 0 -14
-4 -14 -10 0 -16 46 -12 60 5 12 14 11 29 -6 69 -7 18 -4 19 51 13 52 -5 57
-4 43 9 -22 23 -88 27 -120 9z"/>
<path d="M3376 2977 c-21 -22 -26 -35 -26 -79 0 -68 20 -98 63 -98 18 1 43 7
56 14 21 12 28 11 59 -11 26 -17 39 -20 46 -13 17 18 -60 84 -87 75 -12 -3
-39 -9 -59 -12 l-38 -6 0 40 c0 67 50 92 111 56 24 -14 33 -15 49 -5 29 18 57
15 80 -8 19 -19 20 -28 14 -115 -4 -52 -4 -95 0 -95 30 0 50 169 26 221 -18
39 -39 47 -158 54 -110 7 -111 7 -136 -18z"/>
<path d="M4624 2985 c-8 -20 3 -48 16 -40 13 8 13 55 0 55 -6 0 -13 -7 -16
-15z"/>
<path d="M2646 2930 c-77 -30 -82 -39 -48 -86 16 -21 43 -54 61 -71 29 -29 39
-33 86 -33 33 0 55 -5 58 -12 19 -46 46 117 28 164 -21 56 -98 72 -185 38z
m139 -34 c9 -13 18 -40 22 -59 4 -28 1 -37 -18 -51 -13 -9 -40 -16 -61 -16
-33 0 -42 6 -78 53 -43 58 -49 73 -24 63 9 -3 27 3 41 14 37 29 98 27 118 -4z"/>
<path d="M3774 2906 c-36 -16 -44 -32 -44 -90 0 -54 20 -74 80 -78 42 -3 45
-5 51 -38 17 -80 82 -88 199 -23 36 20 67 37 69 39 15 13 -68 134 -92 134 -6
0 -23 12 -38 26 -44 42 -161 58 -225 30z m128 -31 c21 -3 50 -17 66 -30 16
-13 41 -29 56 -35 14 -5 30 -21 36 -34 5 -13 15 -26 22 -29 31 -11 -85 -77
-135 -77 -47 0 -63 21 -47 59 6 17 9 35 5 40 -3 6 -39 11 -80 11 l-74 0 16 46
c16 47 40 65 78 59 11 -2 37 -7 57 -10z"/>
<path d="M5183 2900 c-13 -5 -23 -13 -23 -18 0 -5 -11 -21 -25 -36 -13 -14
-22 -33 -19 -41 9 -23 18 -18 38 20 10 19 27 42 37 51 17 15 20 15 48 -5 37
-27 55 -28 42 -2 -8 14 -67 46 -75 40 -1 0 -11 -4 -23 -9z"/>
<path d="M3158 2865 c-20 -23 -29 -25 -104 -25 -102 0 -123 -14 -131 -84 -5
-43 -3 -50 28 -82 49 -51 86 -47 136 12 l39 46 57 -12 c45 -11 59 -11 72 0 21
17 19 76 -5 128 -15 33 -24 42 -45 42 -14 0 -34 -11 -47 -25z m74 -58 c21 -57
16 -71 -23 -63 -96 20 -87 22 -133 -28 -50 -53 -75 -58 -105 -19 -61 77 -31
113 95 113 77 0 84 2 101 25 26 35 45 27 65 -28z"/>
<path d="M4742 2878 c-19 -19 -14 -29 13 -22 20 5 25 2 31 -20 8 -33 80 -96
109 -96 22 0 96 48 110 70 14 23 -3 19 -58 -14 l-56 -34 -33 38 c-18 21 -41
50 -51 64 -19 28 -46 33 -65 14z"/>
<path d="M4450 2856 c0 -8 5 -18 10 -21 6 -3 10 -13 10 -21 0 -11 -17 -14 -78
-14 -66 0 -82 -3 -97 -20 -32 -35 -13 -65 72 -114 98 -58 127 -65 157 -37 l23
22 68 -22 c62 -21 71 -21 109 -8 32 11 42 20 44 40 3 28 -15 47 -76 81 -17 9
-42 35 -56 57 -26 41 -54 57 -42 24 14 -36 50 -79 98 -118 47 -38 48 -39 26
-48 -26 -10 -74 -5 -135 14 -37 11 -46 11 -76 -6 -34 -18 -34 -18 -90 8 -68
31 -115 73 -99 89 8 8 30 8 77 0 107 -17 137 7 100 78 -16 31 -45 41 -45 16z"/>
<path d="M5616 2729 c-37 -29 -32 -41 9 -23 47 19 54 18 67 -11 12 -27 38 -34
38 -11 0 17 -56 66 -74 66 -8 0 -25 -9 -40 -21z"/>
<path d="M5167 2702 c-10 -10 -17 -28 -17 -40 0 -15 -6 -22 -20 -22 -21 0 -90
-65 -90 -86 0 -12 89 -50 178 -75 39 -11 44 -11 67 11 14 13 25 29 25 36 0 24
69 66 116 72 34 4 44 8 42 21 -9 49 -138 -4 -179 -74 -14 -23 -28 -35 -43 -35
-28 0 -137 37 -151 51 -14 15 21 39 57 39 25 0 28 4 34 41 5 30 13 43 30 50
13 4 24 13 24 19 0 17 -56 11 -73 -8z"/>
<path d="M3382 2678 c-5 -7 -17 -29 -27 -48 -10 -19 -19 -37 -21 -39 -1 -1
-37 -9 -79 -16 -80 -14 -125 -36 -125 -60 0 -8 15 -25 33 -38 49 -37 126 -58
198 -55 l64 3 40 58 c22 31 59 71 83 88 26 19 42 38 40 48 -8 43 -179 92 -206
59z m149 -45 c6 -6 -3 -24 -28 -50 -21 -22 -56 -61 -79 -87 -33 -38 -46 -46
-75 -46 -51 1 -164 42 -164 60 0 11 18 17 65 23 109 14 110 14 131 62 11 24
25 46 32 49 18 8 107 0 118 -11z"/>
<path d="M5726 2603 c-11 -11 -6 -23 8 -23 8 0 17 4 20 9 7 10 -19 23 -28 14z"/>
<path d="M5575 2590 c-3 -5 1 -10 9 -10 9 0 16 5 16 10 0 6 -4 10 -9 10 -6 0
-13 -4 -16 -10z"/>
<path d="M3755 2564 c-38 -13 -87 -26 -107 -29 -46 -7 -95 -46 -103 -84 -19
-88 89 -149 154 -87 43 42 71 32 85 -29 17 -68 71 -85 126 -39 29 25 30 30 24
71 -4 31 -1 57 10 88 20 51 16 61 -38 104 -45 36 -58 37 -151 5z m125 -31 c20
-26 22 -36 17 -117 -4 -60 -11 -94 -21 -104 -20 -21 -42 -2 -50 43 -13 70
-100 99 -146 50 -60 -64 -136 8 -81 76 16 20 28 23 84 24 53 1 73 6 104 28 49
33 67 33 93 0z"/>
<path d="M4078 2573 c-9 -10 -21 -36 -27 -58 -32 -118 6 -207 106 -245 67 -25
195 -37 236 -21 16 6 27 18 27 29 0 11 10 32 22 47 19 24 36 88 41 150 2 15
-17 29 -80 62 -46 23 -90 40 -98 37 -10 -4 -15 -20 -15 -48 0 -58 -10 -86 -29
-86 -22 1 -51 24 -51 42 0 22 -79 108 -99 108 -10 0 -25 -8 -33 -17z m87 -95
c14 -30 33 -50 62 -66 l43 -23 25 25 c19 19 25 35 25 71 0 25 4 45 9 45 16 0
86 -32 104 -48 9 -8 15 -23 12 -31 -3 -9 -6 -30 -9 -48 -2 -18 -19 -50 -42
-77 -38 -44 -41 -45 -95 -46 -82 0 -151 24 -188 65 -28 32 -31 43 -31 98 0 76
22 119 48 93 9 -9 25 -35 37 -58z"/>
<path d="M5817 2584 c-9 -9 4 -34 18 -34 15 0 74 -65 97 -108 15 -28 23 -32
56 -32 85 0 152 31 139 64 -6 15 -9 15 -34 -4 -16 -11 -49 -23 -74 -26 -42 -6
-48 -4 -60 17 -17 33 -110 129 -124 129 -6 0 -14 -3 -18 -6z"/>
<path d="M5520 2561 c0 -13 27 -21 73 -21 39 1 41 2 23 15 -21 16 -96 21 -96
6z"/>
<path d="M6346 2535 c-35 -35 2 -104 133 -252 153 -172 298 -284 521 -401 238
-125 474 -200 695 -222 99 -10 173 -9 415 4 l295 16 87 -29 c124 -42 201 -45
242 -8 l26 22 -37 49 -37 49 -9 -27 c-12 -35 -27 -33 -65 10 -27 30 -35 34
-47 24 -8 -7 -15 -22 -15 -33 0 -19 1 -19 18 -4 20 19 32 13 32 -14 0 -30 -12
-29 -90 7 -76 35 -100 37 -100 8 0 -16 -2 -16 -20 1 -11 10 -20 24 -20 32 0 7
9 13 20 13 20 0 27 14 12 24 -13 8 -72 -32 -72 -49 0 -18 -37 -20 -92 -3 -29
9 -41 9 -50 0 -18 -18 -49 -15 -42 3 5 11 -1 15 -20 15 -16 0 -26 -6 -26 -15
0 -24 -36 -17 -54 10 -18 27 -52 35 -42 10 3 -8 9 -22 12 -30 5 -12 1 -12 -27
2 -31 15 -38 15 -100 -1 -62 -16 -70 -16 -98 -1 -30 15 -31 15 -31 -5 0 -16
-5 -19 -22 -16 -13 3 -54 8 -91 11 -60 6 -69 10 -77 31 -8 20 -14 23 -40 17
-30 -5 -31 -5 -24 22 7 30 11 30 -56 9 -12 -4 -20 -2 -20 5 0 6 -7 11 -16 11
-11 0 -15 -6 -11 -20 8 -31 -16 -24 -35 10 -20 35 -34 38 -41 9 -4 -16 -10
-20 -24 -14 -10 4 -37 10 -60 12 -39 5 -43 8 -43 34 0 26 -3 29 -35 29 -28 0
-35 4 -35 19 0 11 -5 23 -10 26 -17 11 -51 -6 -60 -28 -7 -19 -9 -16 -9 15 -1
41 -28 68 -68 68 -13 0 -31 4 -41 9 -9 5 -29 14 -44 20 -23 9 -28 17 -28 45 0
47 -17 55 -26 11 -4 -25 -11 -35 -25 -35 -24 0 -25 16 -1 29 16 9 16 10 0 16
-9 4 -26 1 -38 -5 -28 -15 -37 -6 -16 15 25 26 21 55 -9 55 -18 0 -25 5 -25
20 0 15 -7 20 -26 20 -37 0 -143 72 -182 122 -18 24 -51 67 -75 97 -23 30 -51
65 -62 79 l-19 25 34 -7 c19 -3 79 -32 135 -64 l100 -57 110 -1 c90 0 119 -4
158 -22 59 -27 91 -27 179 -5 l68 17 127 -42 c149 -49 215 -54 338 -22 102 26
240 27 343 1 44 -11 135 -22 212 -25 156 -8 191 -20 305 -111 91 -73 163 -173
237 -331 28 -61 32 -66 36 -41 10 77 -96 256 -226 379 -126 120 -165 136 -372
148 -80 5 -174 15 -210 24 -87 21 -175 20 -311 -4 -157 -27 -196 -26 -328 15
-128 39 -175 43 -244 18 -47 -17 -49 -17 -130 9 -57 19 -111 28 -177 31 -93 4
-98 5 -205 61 -126 65 -173 77 -199 51z"/>
<path d="M4605 2519 c-47 -14 -55 -33 -54 -128 2 -123 8 -143 50 -165 36 -19
36 -19 75 1 l39 20 0 67 0 68 39 13 c22 8 53 27 69 44 27 26 29 32 17 46 -13
16 -15 16 -26 0 -11 -15 -13 -15 -23 3 -20 37 -113 53 -186 31z m149 -42 c26
-19 10 -45 -35 -57 l-39 -11 0 -64 c0 -68 -14 -95 -50 -95 -30 0 -40 32 -40
129 0 75 3 92 18 100 24 15 125 13 146 -2z"/>
<path d="M5752 2483 c20 -21 47 -61 61 -89 25 -49 40 -61 103 -79 28 -7 68
-51 59 -64 -9 -16 -110 -13 -150 3 -24 11 -41 29 -59 65 -21 41 -38 57 -96 92
-72 42 -89 69 -46 69 33 0 43 18 14 25 -33 9 -78 -11 -78 -33 0 -23 30 -51 91
-86 57 -32 79 -56 83 -88 1 -13 6 -30 10 -37 11 -17 67 -40 136 -57 51 -12 58
-11 95 9 22 12 41 31 43 41 5 26 -44 73 -97 93 -61 22 -78 38 -85 78 -8 39
-65 95 -98 95 -20 0 -19 -3 14 -37z"/>
<path d="M4960 2423 c-14 -3 -39 -15 -56 -29 -37 -27 -88 -109 -81 -128 3 -8
37 -26 75 -41 47 -18 77 -37 92 -57 21 -29 25 -30 77 -24 95 11 140 51 98 86
-8 7 -24 43 -35 81 -20 66 -50 109 -76 109 -6 0 -24 2 -40 4 -16 2 -40 2 -54
-1z m100 -43 c11 -6 22 -26 26 -48 4 -20 15 -56 26 -80 27 -66 25 -72 -28 -72
-37 0 -53 6 -80 30 -19 16 -47 32 -62 35 -68 15 -76 42 -32 103 29 40 33 42
81 42 28 0 59 -5 69 -10z"/>
<path d="M5313 2399 c-6 -8 -14 -28 -18 -46 -3 -18 -17 -48 -31 -68 l-24 -36
36 -32 c50 -44 71 -54 132 -62 81 -11 170 3 184 28 9 18 6 25 -28 54 -32 27
-36 35 -24 43 13 8 13 13 0 37 -27 48 -93 86 -158 91 -41 3 -61 0 -69 -9z
m139 -50 c48 -24 54 -35 23 -43 -14 -4 -25 -10 -25 -15 0 -5 23 -28 50 -51 28
-23 50 -47 50 -52 0 -7 -30 -9 -82 -6 -81 4 -130 20 -170 56 -17 14 -16 17 13
49 25 29 29 41 24 65 l-7 30 43 -7 c24 -4 61 -16 81 -26z"/>
<path d="M9505 2121 c6 -11 54 -27 109 -36 57 -10 42 16 -20 32 -58 15 -97 17
-89 4z"/>
<path d="M9700 2071 c0 -13 89 -65 97 -57 4 4 0 13 -8 21 -20 20 -89 47 -89
36z"/>
<path d="M5435 2000 c26 -29 96 -59 310 -136 251 -89 393 -149 516 -220 61
-35 235 -111 443 -194 187 -76 384 -156 436 -180 140 -61 457 -222 526 -266
66 -42 227 -116 449 -207 l150 -61 130 -4 c156 -5 303 8 615 54 187 27 288 36
495 44 143 6 328 15 410 20 158 11 397 53 504 90 226 76 567 324 502 364 -5 4
-19 -9 -30 -28 -23 -37 -87 -89 -199 -161 -263 -169 -510 -226 -1052 -245
-378 -13 -415 -16 -679 -55 -124 -19 -292 -40 -374 -47 -215 -18 -278 -8 -506
81 -198 77 -251 103 -411 194 -322 183 -466 251 -860 402 -207 80 -421 175
-560 250 -133 71 -230 112 -435 183 -93 33 -215 78 -269 101 -113 47 -139 52
-111 21z"/>
<path d="M6330 2011 c0 -31 113 -88 374 -188 345 -132 592 -238 656 -283 47
-33 435 -248 557 -309 172 -85 268 -124 418 -165 227 -63 270 -63 725 -6 129
16 334 36 455 45 347 25 538 63 802 160 95 36 238 106 258 127 18 19 -38 0
-243 -81 -110 -43 -226 -84 -258 -91 -32 -6 -85 -18 -116 -26 -106 -27 -234
-44 -459 -59 -123 -8 -335 -28 -470 -44 -345 -42 -401 -45 -494 -31 -102 15
-253 53 -347 86 -131 47 -468 222 -753 389 -161 95 -274 148 -500 235 -88 33
-212 83 -275 109 -63 27 -133 54 -154 61 -22 7 -65 28 -97 46 -59 35 -79 41
-79 25z"/>
<path d="M5190 2000 c0 -16 40 -37 205 -111 188 -82 405 -170 570 -229 66 -24
201 -85 300 -136 117 -59 225 -106 310 -134 259 -84 304 -100 406 -144 237
-101 452 -208 584 -290 275 -171 529 -275 720 -296 95 -10 387 3 535 24 108
15 487 40 780 51 501 18 736 54 970 146 194 77 510 307 510 372 0 18 -24 2
-92 -59 -139 -125 -349 -252 -504 -305 -250 -84 -365 -100 -904 -119 -394 -15
-604 -28 -775 -50 -82 -10 -221 -24 -308 -30 -132 -10 -166 -9 -210 3 -28 8
-70 17 -93 21 -111 16 -426 157 -614 276 -241 151 -742 370 -976 425 -44 11
-156 60 -309 135 -135 67 -303 141 -385 170 -80 28 -226 87 -325 130 -169 74
-380 160 -390 160 -3 0 -5 -4 -5 -10z"/>
<path d="M5679 1996 c7 -8 43 -22 79 -30 103 -23 191 -59 382 -155 220 -111
409 -193 620 -269 276 -99 621 -253 729 -326 29 -20 55 -36 58 -36 2 0 50 -26
106 -59 224 -129 472 -240 642 -289 74 -21 111 -25 205 -25 136 1 206 10 530
68 205 37 279 46 455 55 753 36 900 66 1171 246 101 66 194 164 157 164 -5 0
-42 -28 -83 -61 -286 -234 -484 -285 -1245 -319 -217 -10 -261 -15 -650 -85
-112 -19 -174 -25 -308 -25 l-168 0 -137 46 c-178 60 -370 152 -667 322 -265
151 -499 258 -775 354 -208 72 -358 138 -656 285 -220 110 -339 153 -418 153
-32 0 -37 -2 -27 -14z"/>
<path d="M4926 1991 c-13 -21 97 -81 308 -166 154 -62 216 -88 596 -245 157
-65 337 -142 400 -170 182 -82 276 -116 455 -165 245 -68 352 -108 520 -194
173 -89 444 -237 527 -288 73 -43 273 -139 313 -149 17 -4 48 -16 70 -28 37
-19 55 -21 225 -20 151 1 214 6 340 27 255 44 330 48 920 57 554 8 567 8 686
34 66 14 163 40 215 57 217 72 488 232 634 373 62 60 75 78 75 104 0 40 -11
41 -33 2 -25 -41 -145 -149 -252 -225 -153 -110 -375 -209 -570 -255 -212 -51
-222 -52 -835 -60 -569 -8 -589 -9 -745 -35 -345 -58 -454 -60 -617 -11 -62
18 -135 39 -163 45 -29 7 -199 94 -405 207 -365 199 -513 272 -658 319 -45 15
-85 31 -88 36 -3 5 -18 9 -34 9 -43 0 -307 84 -440 140 -63 26 -189 80 -280
120 -91 40 -228 97 -305 126 -77 30 -169 68 -205 84 -97 44 -258 110 -267 110
-5 0 -26 10 -48 21 -22 12 -62 30 -90 39 -27 9 -92 38 -142 64 -101 50 -99 50
-107 37z"/>
<path d="M6022 1978 c3 -7 16 -16 29 -20 145 -41 290 -97 469 -180 222 -104
382 -172 676 -289 225 -89 329 -142 504 -257 147 -96 410 -225 567 -278 169
-57 426 -55 798 5 223 36 312 46 640 71 242 19 347 32 469 60 154 35 536 224
536 266 0 28 -21 23 -72 -16 -59 -45 -265 -150 -355 -181 -147 -50 -297 -74
-643 -99 -253 -19 -362 -32 -725 -92 -183 -30 -415 -30 -537 0 -195 48 -443
162 -683 313 -168 106 -307 172 -645 307 -151 60 -372 155 -490 209 -118 55
-249 112 -290 127 -41 15 -97 36 -124 47 -56 22 -130 26 -124 7z"/>
<path d="M9870 1960 c0 -19 68 -82 80 -75 8 5 7 13 -2 26 -18 27 -78 64 -78
49z"/>
<path d="M10122 1940 c-29 -4 -56 -10 -58 -13 -8 -7 68 -78 94 -88 26 -10 155
-10 191 0 23 6 22 7 -24 59 -46 51 -48 52 -98 51 -29 -1 -76 -5 -105 -9z m57
-44 c9 -10 9 -16 1 -21 -13 -8 -42 14 -34 26 8 13 20 11 33 -5z m101 -16 c0
-5 -7 -10 -16 -10 -8 0 -12 5 -9 10 3 6 10 10 16 10 5 0 9 -4 9 -10z"/>
<path d="M7215 1880 c-3 -5 3 -10 14 -10 12 0 21 5 21 10 0 6 -6 10 -14 10 -8
0 -18 -4 -21 -10z"/>
<path d="M8943 1846 c21 -17 141 -39 184 -34 24 3 19 6 -32 22 -33 10 -85 20
-115 23 -50 4 -53 3 -37 -11z"/>
<path d="M7874 1816 c-18 -14 -18 -15 8 -21 35 -9 53 2 37 21 -14 18 -20 18
-45 0z"/>
<path d="M7620 1801 c0 -20 17 -37 27 -28 7 8 -7 47 -18 47 -5 0 -9 -9 -9 -19z"/>
<path d="M8171 1804 c0 -11 3 -14 6 -6 3 7 2 16 -1 19 -3 4 -6 -2 -5 -13z"/>
<path d="M9308 1788 c16 -16 242 -25 242 -11 0 10 -114 23 -204 23 -40 0 -47
-3 -38 -12z"/>
<path d="M7700 1775 c0 -8 5 -15 10 -15 6 0 10 7 10 15 0 8 -4 15 -10 15 -5 0
-10 -7 -10 -15z"/>
<path d="M8890 1741 c0 -22 64 -39 180 -50 122 -12 597 -15 624 -5 45 17 -17
24 -227 24 -204 0 -434 15 -544 36 -22 4 -33 2 -33 -5z"/>
<path d="M9870 1710 c0 -13 37 -50 49 -50 5 0 16 -3 25 -6 11 -4 16 -1 16 10
0 10 -13 22 -30 27 -16 6 -30 15 -30 20 0 5 -7 9 -15 9 -8 0 -15 -4 -15 -10z"/>
<path d="M9990 1633 c0 -9 71 -53 84 -53 14 0 4 19 -16 32 -31 20 -68 31 -68
21z"/>
<path d="M9630 1620 c-201 -17 -695 -30 -735 -20 -50 12 -115 13 -115 1 0 -5
30 -16 68 -26 57 -14 99 -16 292 -10 428 12 660 31 660 56 0 10 -31 10 -170
-1z"/>
<path d="M7564 1569 c-3 -6 0 -15 7 -20 12 -7 126 -52 234 -92 17 -6 118 -53
225 -105 107 -51 232 -109 278 -128 187 -76 361 -81 997 -29 541 44 675 59
793 91 109 29 239 86 248 108 12 32 -8 34 -49 6 -133 -90 -368 -134 -892 -170
-165 -11 -344 -25 -399 -30 -142 -14 -386 -12 -496 4 -127 20 -208 50 -440
165 -107 53 -244 117 -305 141 -60 24 -119 49 -130 57 -24 16 -61 17 -71 2z"/>
<path d="M9899 1570 c-56 -33 -297 -63 -669 -84 -349 -21 -457 -11 -617 56
-40 16 -80 28 -90 26 -30 -7 39 -43 146 -78 156 -50 237 -54 615 -30 181 11
361 25 400 31 138 19 256 56 256 79 0 13 -20 12 -41 0z"/>
<path d="M10140 1565 c0 -6 38 -22 75 -31 33 -8 32 10 0 24 -26 12 -75 16 -75
7z"/>
<path d="M8270 1542 c0 -23 115 -90 245 -144 l80 -33 510 0 c439 1 523 3 605
18 130 24 283 72 305 97 16 18 16 20 2 20 -9 0 -40 -9 -68 -21 -84 -32 -237
-68 -344 -79 -55 -6 -293 -11 -530 -11 -403 0 -435 2 -503 21 -82 23 -152 56
-225 106 -48 33 -77 43 -77 26z"/>
<path d="M10280 1541 c0 -11 35 -21 76 -21 47 0 94 11 88 21 -7 12 -164 12
-164 0z"/>
<path d="M10481 1541 c-10 -6 -1 -11 27 -16 47 -8 105 2 96 16 -7 11 -104 12
-123 0z"/>
<path d="M8020 1531 c0 -28 319 -198 460 -244 103 -35 231 -41 545 -28 417 18
805 54 940 87 110 26 214 88 190 113 -4 3 -27 -6 -53 -21 -137 -77 -362 -114
-837 -139 -335 -18 -634 -16 -724 5 -98 22 -225 74 -314 129 -68 42 -190 107
-202 107 -3 0 -5 -4 -5 -9z"/>
<path d="M10636 1520 c6 -6 37 -15 70 -21 32 -6 66 -15 74 -19 30 -14 132 -41
138 -35 6 6 -28 34 -43 35 -5 0 -37 11 -70 24 -33 14 -64 21 -70 17 -5 -5 -19
-5 -30 0 -30 12 -81 11 -69 -1z"/>
<path d="M10992 1408 c5 -14 63 -36 98 -37 34 -1 15 13 -44 33 -59 19 -59 19
-54 4z"/>
<path d="M11180 1330 c0 -11 42 -30 63 -30 17 1 -32 40 -49 40 -8 0 -14 -5
-14 -10z"/>
<path d="M11423 1226 c18 -14 107 -43 222 -71 39 -10 111 -28 160 -41 77 -20
218 -34 204 -19 -3 2 -54 14 -115 26 -60 11 -113 24 -119 29 -13 10 -323 90
-350 90 -19 -1 -19 -1 -2 -14z"/>
<path d="M6075 5939 c141 -6 724 -12 845 -8 171 6 -201 17 -570 16 -309 0
-384 -2 -275 -8z"/>
<path d="M7325 5940 l-150 -5 180 -7 c309 -13 3375 -23 3375 -11 0 13 -3078
34 -3405 23z"/>
<path d="M2406 5642 c-9 -15 353 -22 1684 -28 878 -4 1262 -3 1255 4 -7 7
-393 12 -1195 16 -652 4 -1309 9 -1461 12 -167 3 -279 2 -283 -4z"/>
<path d="M10395 5160 c33 -4 253 -8 488 -9 236 -1 663 -6 950 -12 287 -6 542
-7 567 -3 l45 8 -60 7 c-33 4 -508 10 -1055 12 -547 3 -968 2 -935 -3z"/>
<path d="M4730 5123 c0 -17 445 -24 2045 -34 847 -6 1833 -13 2192 -15 406 -4
658 -2 669 4 12 7 -3 11 -57 16 -161 14 -1753 26 -3189 25 -833 -1 -1548 2
-1587 6 -46 5 -73 4 -73 -2z"/>
<path d="M8250 4949 c98 -12 2280 -23 2309 -12 17 7 -80 12 -300 16 -443 9
-2090 6 -2009 -4z"/>
<path d="M4236 4871 c-3 -5 1 -11 9 -15 8 -3 15 -1 15 4 0 13 -18 22 -24 11z"/>
<path d="M3458 4832 c-43 -2 -78 -7 -78 -12 0 -6 63 -10 155 -10 88 0 155 4
155 9 0 11 -119 17 -232 13z"/>
<path d="M2860 4819 c129 -11 368 -11 375 1 4 7 -74 9 -227 8 -180 -1 -214 -3
-148 -9z"/>
<path d="M4175 4822 c-75 -14 575 -22 1575 -20 547 0 950 4 895 8 -134 10
-2419 21 -2470 12z"/>
<path d="M7222 4804 c9 -8 629 -26 657 -18 24 6 25 7 6 14 -22 9 -672 13 -663
4z"/>
<path d="M6290 4501 c-223 -9 -197 -10 335 -21 465 -9 1475 -1 1390 12 -68 9
-1505 17 -1725 9z"/>
<path d="M8116 4481 c-3 -5 87 -10 208 -12 299 -6 662 1 645 12 -18 11 -846
12 -853 0z"/>
<path d="M9065 4481 c-26 -10 450 -18 705 -11 l195 5 -220 7 c-279 10 -654 9
-680 -1z"/>
<path d="M10140 4481 c0 -11 110 -21 238 -21 102 0 135 12 65 24 -57 9 -303 7
-303 -3z"/>
<path d="M4230 4150 c0 -6 35 -10 85 -10 50 0 85 4 85 10 0 6 -35 10 -85 10
-50 0 -85 -4 -85 -10z"/>
<path d="M4506 4152 c-7 -11 301 -22 631 -22 251 0 341 10 211 24 -91 9 -836
7 -842 -2z"/>
<path d="M5595 4151 c-60 -10 290 -21 635 -20 231 0 290 3 270 12 -28 13 -834
20 -905 8z"/>
<path d="M6620 4150 c-13 -9 -13 -11 0 -20 19 -12 77 -13 85 -1 11 19 -62 37
-85 21z"/>
<path d="M6945 4140 c-12 -5 75 -9 215 -9 155 -1 230 3 220 9 -19 12 -407 12
-435 0z"/>
<path d="M7636 4142 c-3 -5 65 -12 152 -15 228 -10 1000 -8 1006 1 6 10 -494
22 -890 22 -145 0 -265 -4 -268 -8z"/>
<path d="M9520 3610 c-282 -11 -298 -13 -170 -20 63 -4 473 -8 910 -10 437 -1
870 -5 961 -9 92 -3 179 -3 195 0 112 22 -1486 55 -1896 39z"/>
<path d="M8601 3606 c8 -8 459 -27 470 -20 29 18 -33 24 -245 24 -126 0 -227
-2 -225 -4z"/>
<path d="M10275 3171 l-80 -6 109 -7 c140 -10 804 -10 1197 -1 226 6 282 9
219 14 -102 8 -1331 8 -1445 0z"/>
<path d="M12005 3172 c-25 -6 -27 -9 -12 -15 28 -11 225 -8 232 3 4 6 -7 10
-27 10 -18 0 -62 2 -98 4 -36 3 -78 2 -95 -2z"/>
<path d="M523 3023 c-131 -2 -213 -7 -213 -13 0 -12 949 -13 968 -1 34 21 -66
23 -755 14z"/>
<path d="M1475 3011 c-32 -13 201 -23 332 -15 174 10 112 23 -117 23 -107 0
-204 -4 -215 -8z"/>
<path d="M1218 2581 c-97 -3 -179 -9 -183 -12 -3 -4 115 -10 262 -14 198 -5
290 -3 353 6 107 16 180 16 249 1 59 -13 488 -16 556 -4 38 7 39 8 15 17 -29
10 -991 15 -1252 6z"/>
<path d="M42 2101 c-19 -11 360 -21 808 -20 366 0 471 6 391 22 -49 10 -1184
8 -1199 -2z"/>
<path d="M1640 2100 l-45 -5 55 -8 c30 -4 224 -6 430 -5 283 1 345 3 255 9
-153 9 -636 16 -695 9z"/>
<path d="M2810 2091 c-11 -8 -4 -11 30 -11 25 0 90 -3 145 -6 74 -5 97 -4 90
5 -15 15 -245 26 -265 12z"/>
<path d="M1274 1948 c13 -7 228 -12 665 -14 365 -2 620 1 586 5 -97 14 -1274
22 -1251 9z"/>
<path d="M2775 1930 c71 -9 791 -17 800 -9 10 11 -264 19 -564 18 -189 -1
-274 -4 -236 -9z"/>
<path d="M2435 810 c55 -4 453 -9 885 -10 432 -2 1102 -5 1490 -9 464 -4 710
-3 719 4 11 8 3 12 -30 17 -24 3 -746 6 -1604 6 -858 -1 -1515 -5 -1460 -8z"/>
<path d="M950 631 c-165 -3 -271 -9 -251 -13 47 -11 1291 -9 1316 2 12 5 -72
9 -210 9 -126 1 -306 3 -400 5 -93 1 -298 0 -455 -3z"/>
<path d="M2084 621 c3 -4 103 -10 223 -13 192 -5 226 -9 282 -28 57 -20 77
-22 165 -17 56 4 117 11 136 18 24 8 201 13 542 18 278 3 509 9 513 12 11 12
-430 21 -710 16 -189 -3 -299 -10 -365 -22 -109 -19 -218 -16 -300 9 -43 13
-100 16 -273 16 -120 0 -216 -4 -213 -9z"/>
<path d="M4596 611 c-49 -3 -91 -10 -93 -16 -3 -11 462 -11 1427 2 594 8 600
8 305 14 -370 8 -1518 7 -1639 0z"/>
<path d="M2660 40 c0 -5 5 -10 10 -10 6 0 10 5 10 10 0 6 -4 10 -10 10 -5 0
-10 -4 -10 -10z"/>
</g>
</svg>
