<?xml version="1.0" standalone="no"?>
<!DOCTYPE svg PUBLIC "-//W3C//DTD SVG 20010904//EN"
 "http://www.w3.org/TR/2001/REC-SVG-20010904/DTD/svg10.dtd">
<svg version="1.0" xmlns="http://www.w3.org/2000/svg"
 width="500.000000pt" height="500.000000pt" viewBox="0 0 500.000000 500.000000"
 preserveAspectRatio="xMidYMid meet">

<g transform="translate(0.000000,500.000000) scale(0.100000,-0.100000)"
fill="#000000" stroke="none">
<path d="M2355 3774 c-92 -21 -205 -65 -282 -111 -35 -20 -61 -38 -60 -39 2
-2 32 8 67 22 97 40 222 68 264 60 28 -5 42 -16 61 -46 20 -31 35 -42 77 -55
70 -20 94 -19 185 10 159 52 295 42 449 -35 65 -32 74 -35 49 -14 -102 86
-234 156 -366 195 -100 29 -340 36 -444 13z"/>
<path d="M1546 3664 c-25 -25 -31 -61 -30 -194 0 -139 12 -184 80 -296 l36
-59 -19 -80 c-27 -120 -25 -342 5 -454 85 -316 309 -559 620 -671 35 -13 72
-34 82 -48 46 -58 50 -162 10 -276 -19 -55 -19 -61 -4 -84 18 -28 38 -26 165
14 149 47 256 145 293 271 10 32 21 69 25 82 5 17 23 29 66 46 249 93 440 269
549 507 65 139 83 261 46 298 -20 20 -33 20 -713 20 l-694 0 -55 58 c-57 59
-123 174 -115 197 3 7 23 15 44 18 56 10 171 69 225 116 57 51 108 127 137
205 20 54 20 60 6 82 -22 34 -45 30 -90 -17 -69 -71 -74 -72 -251 -66 -88 3
-93 4 -117 33 -13 16 -53 49 -88 72 -77 52 -115 103 -130 172 -9 40 -16 53
-36 61 -31 12 -29 12 -47 -7z m176 -310 c53 -32 73 -68 63 -113 -5 -23 -1 -35
14 -50 28 -28 37 -27 76 16 37 40 39 40 195 35 l75 -3 -45 -40 c-58 -53 -118
-83 -203 -102 -92 -21 -111 -39 -103 -96 11 -83 72 -189 156 -273 l78 -78 416
0 c229 0 416 -3 416 -6 0 -3 -18 -26 -40 -51 -78 -89 -106 -218 -97 -445 11
-262 -22 -396 -112 -468 -41 -32 -169 -96 -177 -88 -2 3 1 29 7 59 15 68 5
167 -20 217 -37 73 -66 98 -148 126 -274 96 -486 320 -563 596 -33 116 -37
280 -11 405 11 55 23 109 26 120 4 13 -9 43 -40 89 -45 69 -85 174 -85 224 l0
26 38 -35 c20 -20 58 -49 84 -65z m1673 -741 c-11 -64 -71 -199 -120 -273 -91
-136 -237 -259 -383 -321 l-67 -28 -9 122 c-20 265 27 404 162 484 73 43 117
52 276 52 l148 1 -7 -37z"/>
<path d="M3319 3370 c35 -73 40 -130 16 -187 -8 -19 -15 -50 -15 -68 0 -28 7
-37 49 -64 58 -38 75 -56 101 -107 17 -34 19 -36 19 -14 1 50 -37 207 -69 282
-28 69 -95 185 -122 213 -5 6 4 -19 21 -55z"/>
</g>
</svg>
